# xmcd
#
# Track frame offsets: 
#        150
#        15913
#        27485
#        43623
#        55030
#        68838
#        84580
#        98348
#        110960
#        123213
#        138255
#        153603
#        168280
#        181683
#        195650
#        211010
#        223883
#        238630
#        255608
#        270960
#        281913
#        295863
#        306875
#
# Disc length: 4354 seconds
#
# Revision: 2
# Processed by: cddbd v1.5.2PL0 Copyright (c) Steve Scherf et al.
# Submitted via: ExactAudioCopyFreeDBPlugin 1.0
#
DISCID=40110017
DTITLE=Various Artist - The Complete Stax-Volt Singles, 1959-1975
DYEAR=1993
DGENRE=Soul
TTITLE0=The Staple Singers - You've Got to Earn It
TTITLE1=The Limitations - Hold on to It
TTITLE2=The Dramatics - Whatcha See is Whatcha Get
TTITLE3=Branding Iron - Born Too Late
TTITLE4=Jimmy Hughes - Just Ain't Strong as I Used to Be (You Done Fed
TTITLE4=Me Sumpin')
TTITLE5=Margie Joseph - That Other Woman Got My Man and Gone
TTITLE6=The Emotions - If You Think It (You May as Well Do It)
TTITLE7=Calvin Scott - Shame on the Family Name
TTITLE8=Eddie Floyd - Blood is Thicker Than Water
TTITLE9=Johnnie Taylor - Hijackin' Love
TTITLE10=Melvin Van Peebles - Sweetback's Theme
TTITLE11=Rufus Thomas - The Breakdown (Part 1)
TTITLE12=The Newcomers - Pin the Tail on the Donkey
TTITLE13=Lee Sain - Them Hot Pants
TTITLE14=Little Milton - If That Ain't a Reason (For Your Woman to Lea
TTITLE14=ve You)
TTITLE15=Shack - It's Good to Be Careful (But It's Better to Be Loved)
TTITLE16=Ilana - Where Would You Be Today
TTITLE17=Albert King - Everybody Wants to Go to Heaven
TTITLE18=The Soul Children - Got to Get Away from it All
TTITLE19=United Image - Love's Creeping Up on Me
TTITLE20=The Emotions - Show Me How
TTITLE21=David Porter - If I Give it Up I Want it Back
TTITLE22=Little Sonny - A Woman Named Trouble
EXTD=
EXTT0=
EXTT1=
EXTT2=
EXTT3=
EXTT4=
EXTT5=
EXTT6=
EXTT7=
EXTT8=
EXTT9=
EXTT10=
EXTT11=
EXTT12=
EXTT13=
EXTT14=
EXTT15=
EXTT16=
EXTT17=
EXTT18=
EXTT19=
EXTT20=
EXTT21=
EXTT22=
PLAYORDER=
